<svg xmlns="http://www.w3.org/2000/svg" width="1920" height="1080"><path d="M-194,-252L327,-242L1046,-258Z" fill="#e9f6bf" stroke="#e9f6bf" stroke-width="1.51"/><path d="M327,-242L685,-206L1046,-258Z" fill="#d3edb3" stroke="#d3edb3" stroke-width="1.51"/><path d="M1218,1335L710,1322L1285,1340Z" fill="#36814c" stroke="#36814c" stroke-width="1.51"/><path d="M710,1322L230,1341L1285,1340Z" fill="#548d57" stroke="#548d57" stroke-width="1.51"/><path d="M1046,-258L1178,-237L1447,-244Z" fill="#a8d79d" stroke="#a8d79d" stroke-width="1.51"/><path d="M1046,-258L1447,-244L1826,-252Z" fill="#9cc993" stroke="#9cc993" stroke-width="1.51"/><path d="M1587,1303L1285,1340L1979,1313Z" fill="#0f6536" stroke="#0f6536" stroke-width="1.51"/><path d="M2045,-60L1989,61L2048,116Z" fill="#79a26a" stroke="#79a26a" stroke-width="1.51"/><path d="M2068,891L2047,1008L2110,1109Z" fill="#0e6636" stroke="#0e6636" stroke-width="1.51"/><path d="M2109,688L2068,891L2110,1109Z" fill="#166d3b" stroke="#166d3b" stroke-width="1.51"/><path d="M2063,400L1951,526L2130,581Z" fill="#468c54" stroke="#468c54" stroke-width="1.51"/><path d="M2109,688L2110,1109L2130,581Z" fill="#1e7540" stroke="#1e7540" stroke-width="1.51"/><path d="M1909,289L2063,400L2141,217Z" fill="#60975e" stroke="#60975e" stroke-width="1.51"/><path d="M2048,116L1909,289L2141,217Z" fill="#6b9c62" stroke="#6b9c62" stroke-width="1.51"/><path d="M2050,-198L2045,-60L2141,217Z" fill="#7ca06c" stroke="#7ca06c" stroke-width="1.51"/><path d="M2045,-60L2048,116L2141,217Z" fill="#749d67" stroke="#749d67" stroke-width="1.51"/><path d="M2063,400L2130,581L2141,217Z" fill="#538e57" stroke="#538e57" stroke-width="1.51"/><path d="M1924,669L2068,891L2109,688Z" fill="#237d45" stroke="#237d45" stroke-width="1.51"/><path d="M1924,669L2109,688L2130,581Z" fill="#32834b" stroke="#32834b" stroke-width="1.51"/><path d="M1951,526L1924,669L2130,581Z" fill="#3b8950" stroke="#3b8950" stroke-width="1.51"/><path d="M1924,669L1887,852L2068,891Z" fill="#207d44" stroke="#207d44" stroke-width="1.51"/><path d="M2047,1008L1922,1188L2110,1109Z" fill="#056234" stroke="#056234" stroke-width="1.51"/><path d="M1922,1188L2035,1266L2110,1109Z" fill="#005c32" stroke="#005c32" stroke-width="1.51"/><path d="M1785,1243L1587,1303L1979,1313Z" fill="#056034" stroke="#056034" stroke-width="1.51"/><path d="M1918,-158L1918,-101L2045,-60Z" fill="#84aa75" stroke="#84aa75" stroke-width="1.51"/><path d="M1918,-158L2045,-60L2050,-198Z" fill="#84a777" stroke="#84a777" stroke-width="1.51"/><path d="M1826,-252L1918,-158L2050,-198Z" fill="#87ac7f" stroke="#87ac7f" stroke-width="1.51"/><path d="M1915,378L1951,526L2063,400Z" fill="#519459" stroke="#519459" stroke-width="1.51"/><path d="M1909,289L1915,378L2063,400Z" fill="#5c995d" stroke="#5c995d" stroke-width="1.51"/><path d="M1891,958L2047,1008L2068,891Z" fill="#136d39" stroke="#136d39" stroke-width="1.51"/><path d="M1887,852L1891,958L2068,891Z" fill="#18753e" stroke="#18753e" stroke-width="1.51"/><path d="M1891,958L1922,1188L2047,1008Z" fill="#0b6938" stroke="#0b6938" stroke-width="1.51"/><path d="M1918,-101L1989,61L2045,-60Z" fill="#7fa66f" stroke="#7fa66f" stroke-width="1.51"/><path d="M1989,61L1909,289L2048,116Z" fill="#71a066" stroke="#71a066" stroke-width="1.51"/><path d="M1922,1188L1979,1313L2035,1266Z" fill="#005831" stroke="#005831" stroke-width="1.51"/><path d="M1447,-244L1579,-200L1826,-252Z" fill="#93be8a" stroke="#93be8a" stroke-width="1.51"/><path d="M1891,958L1808,970L1922,1188Z" fill="#0c6f3a" stroke="#0c6f3a" stroke-width="1.51"/><path d="M1918,-101L1811,70L1989,61Z" fill="#7faa6f" stroke="#7faa6f" stroke-width="1.51"/><path d="M1811,70L1909,289L1989,61Z" fill="#75a769" stroke="#75a769" stroke-width="1.51"/><path d="M1811,70L1758,224L1909,289Z" fill="#72a968" stroke="#72a968" stroke-width="1.51"/><path d="M1797,-63L1811,70L1918,-101Z" fill="#84b073" stroke="#84b073" stroke-width="1.51"/><path d="M1808,970L1747,1115L1922,1188Z" fill="#0a6e39" stroke="#0a6e39" stroke-width="1.51"/><path d="M1922,1188L1785,1243L1979,1313Z" fill="#005e33" stroke="#005e33" stroke-width="1.51"/><path d="M327,-242L433,-221L685,-206Z" fill="#e2f3b9" stroke="#e2f3b9" stroke-width="1.51"/><path d="M1811,653L1887,852L1924,669Z" fill="#29894a" stroke="#29894a" stroke-width="1.51"/><path d="M1915,378L1840,383L1951,526Z" fill="#54995b" stroke="#54995b" stroke-width="1.51"/><path d="M1840,383L1780,513L1951,526Z" fill="#4e995a" stroke="#4e995a" stroke-width="1.51"/><path d="M1811,653L1924,669L1951,526Z" fill="#398f51" stroke="#398f51" stroke-width="1.51"/><path d="M1780,513L1811,653L1951,526Z" fill="#429556" stroke="#429556" stroke-width="1.51"/><path d="M1811,653L1745,822L1887,852Z" fill="#258849" stroke="#258849" stroke-width="1.51"/><path d="M1909,289L1840,383L1915,378Z" fill="#5e9e5f" stroke="#5e9e5f" stroke-width="1.51"/><path d="M1747,1115L1785,1243L1922,1188Z" fill="#036837" stroke="#036837" stroke-width="1.51"/><path d="M1918,-158L1797,-63L1918,-101Z" fill="#87af77" stroke="#87af77" stroke-width="1.51"/><path d="M1826,-252L1797,-63L1918,-158Z" fill="#88b17d" stroke="#88b17d" stroke-width="1.51"/><path d="M1887,852L1808,970L1891,958Z" fill="#17783e" stroke="#17783e" stroke-width="1.51"/><path d="M1758,224L1840,383L1909,289Z" fill="#66a463" stroke="#66a463" stroke-width="1.51"/><path d="M1745,822L1808,970L1887,852Z" fill="#1d7e42" stroke="#1d7e42" stroke-width="1.51"/><path d="M1689,649L1745,822L1811,653Z" fill="#30904e" stroke="#30904e" stroke-width="1.51"/><path d="M1613,-115L1797,-63L1826,-252Z" fill="#8db77e" stroke="#8db77e" stroke-width="1.51"/><path d="M1619,394L1780,513L1840,383Z" fill="#59a15f" stroke="#59a15f" stroke-width="1.51"/><path d="M1758,224L1619,394L1840,383Z" fill="#66a764" stroke="#66a764" stroke-width="1.51"/><path d="M1780,513L1689,649L1811,653Z" fill="#409655" stroke="#409655" stroke-width="1.51"/><path d="M1797,-63L1653,59L1811,70Z" fill="#83b372" stroke="#83b372" stroke-width="1.51"/><path d="M1653,59L1758,224L1811,70Z" fill="#7db16e" stroke="#7db16e" stroke-width="1.51"/><path d="M1579,-200L1613,-115L1826,-252Z" fill="#90bb84" stroke="#90bb84" stroke-width="1.51"/><path d="M1639,1105L1747,1115L1808,970Z" fill="#13743c" stroke="#13743c" stroke-width="1.51"/><path d="M1581,1023L1639,1105L1808,970Z" fill="#18793e" stroke="#18793e" stroke-width="1.51"/><path d="M1745,822L1656,850L1808,970Z" fill="#218244" stroke="#218244" stroke-width="1.51"/><path d="M1626,233L1619,394L1758,224Z" fill="#6ead68" stroke="#6ead68" stroke-width="1.51"/><path d="M1656,850L1581,1023L1808,970Z" fill="#1e7f41" stroke="#1e7f41" stroke-width="1.51"/><path d="M1613,-115L1653,59L1797,-63Z" fill="#8ab877" stroke="#8ab877" stroke-width="1.51"/><path d="M1653,59L1626,233L1758,224Z" fill="#7ab16c" stroke="#7ab16c" stroke-width="1.51"/><path d="M1624,551L1689,649L1780,513Z" fill="#479c58" stroke="#479c58" stroke-width="1.51"/><path d="M1619,394L1624,551L1780,513Z" fill="#53a25d" stroke="#53a25d" stroke-width="1.51"/><path d="M1747,1115L1639,1105L1785,1243Z" fill="#0a6f39" stroke="#0a6f39" stroke-width="1.51"/><path d="M1639,1105L1587,1303L1785,1243Z" fill="#0c6c39" stroke="#0c6c39" stroke-width="1.51"/><path d="M1689,649L1656,850L1745,822Z" fill="#2a8e4b" stroke="#2a8e4b" stroke-width="1.51"/><path d="M1486,1269L1285,1340L1587,1303Z" fill="#18703c" stroke="#18703c" stroke-width="1.51"/><path d="M1537,1101L1587,1303L1639,1105Z" fill="#12733c" stroke="#12733c" stroke-width="1.51"/><path d="M1534,53L1626,233L1653,59Z" fill="#83b871" stroke="#83b871" stroke-width="1.51"/><path d="M1613,-115L1534,53L1653,59Z" fill="#8bbb77" stroke="#8bbb77" stroke-width="1.51"/><path d="M1521,987L1581,1023L1656,850Z" fill="#228342" stroke="#228342" stroke-width="1.51"/><path d="M1523,859L1521,987L1656,850Z" fill="#278846" stroke="#278846" stroke-width="1.51"/><path d="M1521,709L1656,850L1689,649Z" fill="#31954f" stroke="#31954f" stroke-width="1.51"/><path d="M1624,551L1521,709L1689,649Z" fill="#419c56" stroke="#419c56" stroke-width="1.51"/><path d="M1537,1101L1486,1269L1587,1303Z" fill="#14723c" stroke="#14723c" stroke-width="1.51"/><path d="M1619,394L1492,493L1624,551Z" fill="#58a760" stroke="#58a760" stroke-width="1.51"/><path d="M1529,269L1619,394L1626,233Z" fill="#6fb069" stroke="#6fb069" stroke-width="1.51"/><path d="M1521,709L1523,859L1656,850Z" fill="#2d914c" stroke="#2d914c" stroke-width="1.51"/><path d="M1534,53L1529,269L1626,233Z" fill="#7db76e" stroke="#7db76e" stroke-width="1.51"/><path d="M1581,1023L1537,1101L1639,1105Z" fill="#1a7a3f" stroke="#1a7a3f" stroke-width="1.51"/><path d="M1446,-98L1534,53L1613,-115Z" fill="#92c17b" stroke="#92c17b" stroke-width="1.51"/><path d="M1529,269L1478,408L1619,394Z" fill="#6aaf68" stroke="#6aaf68" stroke-width="1.51"/><path d="M1478,408L1492,493L1619,394Z" fill="#61ad64" stroke="#61ad64" stroke-width="1.51"/><path d="M1492,493L1521,709L1624,551Z" fill="#4ba35b" stroke="#4ba35b" stroke-width="1.51"/><path d="M1178,-237L1338,-212L1447,-244Z" fill="#a1d197" stroke="#a1d197" stroke-width="1.51"/><path d="M1579,-200L1446,-98L1613,-115Z" fill="#94c183" stroke="#94c183" stroke-width="1.51"/><path d="M1370,209L1529,269L1534,53Z" fill="#82bd73" stroke="#82bd73" stroke-width="1.51"/><path d="M1447,-244L1446,-98L1579,-200Z" fill="#98c58a" stroke="#98c58a" stroke-width="1.51"/><path d="M1521,987L1537,1101L1581,1023Z" fill="#1e7f41" stroke="#1e7f41" stroke-width="1.51"/><path d="M1492,493L1360,548L1521,709Z" fill="#4fa85f" stroke="#4fa85f" stroke-width="1.51"/><path d="M1360,548L1373,690L1521,709Z" fill="#48a75c" stroke="#48a75c" stroke-width="1.51"/><path d="M1373,690L1360,856L1521,709Z" fill="#39a055" stroke="#39a055" stroke-width="1.51"/><path d="M1360,856L1521,987L1523,859Z" fill="#2c8f4a" stroke="#2c8f4a" stroke-width="1.51"/><path d="M1521,709L1360,856L1523,859Z" fill="#329750" stroke="#329750" stroke-width="1.51"/><path d="M1296,65L1370,209L1534,53Z" fill="#8dc57a" stroke="#8dc57a" stroke-width="1.51"/><path d="M1446,-98L1319,-31L1534,53Z" fill="#95c67f" stroke="#95c67f" stroke-width="1.51"/><path d="M1378,1153L1486,1269L1537,1101Z" fill="#1a7a40" stroke="#1a7a40" stroke-width="1.51"/><path d="M1521,987L1368,1034L1537,1101Z" fill="#228344" stroke="#228344" stroke-width="1.51"/><path d="M1368,1034L1378,1153L1537,1101Z" fill="#208244" stroke="#208244" stroke-width="1.51"/><path d="M1370,209L1478,408L1529,269Z" fill="#75b96e" stroke="#75b96e" stroke-width="1.51"/><path d="M1319,-31L1296,65L1534,53Z" fill="#93c87e" stroke="#93c87e" stroke-width="1.51"/><path d="M1360,856L1368,1034L1521,987Z" fill="#2a8c49" stroke="#2a8c49" stroke-width="1.51"/><path d="M1370,209L1311,372L1478,408Z" fill="#75bb6f" stroke="#75bb6f" stroke-width="1.51"/><path d="M1088,1285L710,1322L1218,1335Z" fill="#3c854f" stroke="#3c854f" stroke-width="1.51"/><path d="M1478,408L1360,548L1492,493Z" fill="#5eaf66" stroke="#5eaf66" stroke-width="1.51"/><path d="M1338,-212L1446,-98L1447,-244Z" fill="#9cca8e" stroke="#9cca8e" stroke-width="1.51"/><path d="M1378,1153L1285,1340L1486,1269Z" fill="#1d7941" stroke="#1d7941" stroke-width="1.51"/><path d="M1311,372L1360,548L1478,408Z" fill="#66b66a" stroke="#66b66a" stroke-width="1.51"/><path d="M1338,-212L1319,-31L1446,-98Z" fill="#9dcd88" stroke="#9dcd88" stroke-width="1.51"/><path d="M918,1263L710,1322L1088,1285Z" fill="#468b54" stroke="#468b54" stroke-width="1.51"/><path d="M1311,372L1198,380L1360,548Z" fill="#6cbc6f" stroke="#6cbc6f" stroke-width="1.51"/><path d="M1360,856L1213,836L1368,1034Z" fill="#339850" stroke="#339850" stroke-width="1.51"/><path d="M1213,836L1136,1017L1368,1034Z" fill="#349850" stroke="#349850" stroke-width="1.51"/><path d="M1136,1017L1171,1193L1368,1034Z" fill="#2e8f4d" stroke="#2e8f4d" stroke-width="1.51"/><path d="M1202,215L1311,372L1370,209Z" fill="#81c577" stroke="#81c577" stroke-width="1.51"/><path d="M1296,65L1202,215L1370,209Z" fill="#8cca7c" stroke="#8cca7c" stroke-width="1.51"/><path d="M1213,836L1360,856L1373,690Z" fill="#3ba357" stroke="#3ba357" stroke-width="1.51"/><path d="M1154,744L1213,836L1373,690Z" fill="#42aa5d" stroke="#42aa5d" stroke-width="1.51"/><path d="M1360,548L1146,538L1373,690Z" fill="#56b366" stroke="#56b366" stroke-width="1.51"/><path d="M1146,538L1154,744L1373,690Z" fill="#51b264" stroke="#51b264" stroke-width="1.51"/><path d="M1368,1034L1171,1193L1378,1153Z" fill="#258849" stroke="#258849" stroke-width="1.51"/><path d="M1171,1193L1285,1340L1378,1153Z" fill="#238146" stroke="#238146" stroke-width="1.51"/><path d="M1198,380L1146,538L1360,548Z" fill="#68bc6e" stroke="#68bc6e" stroke-width="1.51"/><path d="M1178,-237L1319,-31L1338,-212Z" fill="#a2d391" stroke="#a2d391" stroke-width="1.51"/><path d="M1178,-237L1149,-31L1319,-31Z" fill="#a5d68e" stroke="#a5d68e" stroke-width="1.51"/><path d="M1171,1193L1218,1335L1285,1340Z" fill="#277e46" stroke="#277e46" stroke-width="1.51"/><path d="M1202,215L1198,380L1311,372Z" fill="#7ec677" stroke="#7ec677" stroke-width="1.51"/><path d="M1182,63L1202,215L1296,65Z" fill="#96d081" stroke="#96d081" stroke-width="1.51"/><path d="M1182,63L1296,65L1319,-31Z" fill="#99d084" stroke="#99d084" stroke-width="1.51"/><path d="M1149,-31L1182,63L1319,-31Z" fill="#9fd388" stroke="#9fd388" stroke-width="1.51"/><path d="M1146,538L1083,675L1154,744Z" fill="#5cb76a" stroke="#5cb76a" stroke-width="1.51"/><path d="M1035,-83L1149,-31L1178,-237Z" fill="#addb95" stroke="#addb95" stroke-width="1.51"/><path d="M1182,63L1049,138L1202,215Z" fill="#9ad284" stroke="#9ad284" stroke-width="1.51"/><path d="M1049,251L1198,380L1202,215Z" fill="#8acc7d" stroke="#8acc7d" stroke-width="1.51"/><path d="M1154,744L1086,798L1213,836Z" fill="#49ab5f" stroke="#49ab5f" stroke-width="1.51"/><path d="M1086,798L1136,1017L1213,836Z" fill="#43a35a" stroke="#43a35a" stroke-width="1.51"/><path d="M1171,1193L1088,1285L1218,1335Z" fill="#2e834a" stroke="#2e834a" stroke-width="1.51"/><path d="M1136,1017L1059,1039L1171,1193Z" fill="#399452" stroke="#399452" stroke-width="1.51"/><path d="M1046,-258L1035,-83L1178,-237Z" fill="#b1dd9e" stroke="#b1dd9e" stroke-width="1.51"/><path d="M987,402L1146,538L1198,380Z" fill="#79c577" stroke="#79c577" stroke-width="1.51"/><path d="M1049,138L1049,251L1202,215Z" fill="#96d183" stroke="#96d183" stroke-width="1.51"/><path d="M1049,251L987,402L1198,380Z" fill="#88cc7d" stroke="#88cc7d" stroke-width="1.51"/><path d="M1086,798L1059,1039L1136,1017Z" fill="#449f57" stroke="#449f57" stroke-width="1.51"/><path d="M987,402L1062,552L1146,538Z" fill="#75c476" stroke="#75c476" stroke-width="1.51"/><path d="M1062,552L1083,675L1146,538Z" fill="#66bd6f" stroke="#66bd6f" stroke-width="1.51"/><path d="M1059,1039L983,1166L1171,1193Z" fill="#3c9353" stroke="#3c9353" stroke-width="1.51"/><path d="M1149,-31L1049,138L1182,63Z" fill="#a2d689" stroke="#a2d689" stroke-width="1.51"/><path d="M983,1166L1088,1285L1171,1193Z" fill="#378b50" stroke="#378b50" stroke-width="1.51"/><path d="M1035,-83L1049,138L1149,-31Z" fill="#a9d98e" stroke="#a9d98e" stroke-width="1.51"/><path d="M1083,675L1086,798L1154,744Z" fill="#51b264" stroke="#51b264" stroke-width="1.51"/><path d="M911,840L1059,1039L1086,798Z" fill="#4fa85e" stroke="#4fa85e" stroke-width="1.51"/><path d="M1035,-83L940,-44L1049,138Z" fill="#afdd92" stroke="#afdd92" stroke-width="1.51"/><path d="M911,840L936,1023L1059,1039Z" fill="#4fa35c" stroke="#4fa35c" stroke-width="1.51"/><path d="M685,-206L875,-169L1046,-258Z" fill="#c3e6a9" stroke="#c3e6a9" stroke-width="1.51"/><path d="M1062,552L931,684L1083,675Z" fill="#67bc6f" stroke="#67bc6f" stroke-width="1.51"/><path d="M1083,675L931,684L1086,798Z" fill="#5bb769" stroke="#5bb769" stroke-width="1.51"/><path d="M931,684L911,840L1086,798Z" fill="#5bb568" stroke="#5bb568" stroke-width="1.51"/><path d="M983,1166L918,1263L1088,1285Z" fill="#3f8d53" stroke="#3f8d53" stroke-width="1.51"/><path d="M875,-169L1035,-83L1046,-258Z" fill="#b9e1a1" stroke="#b9e1a1" stroke-width="1.51"/><path d="M940,-44L862,41L1049,138Z" fill="#b1de93" stroke="#b1de93" stroke-width="1.51"/><path d="M917,391L987,402L1049,251Z" fill="#8fd082" stroke="#8fd082" stroke-width="1.51"/><path d="M1049,138L919,193L1049,251Z" fill="#9fd688" stroke="#9fd688" stroke-width="1.51"/><path d="M934,1119L983,1166L1059,1039Z" fill="#459857" stroke="#459857" stroke-width="1.51"/><path d="M936,1023L934,1119L1059,1039Z" fill="#489c59" stroke="#489c59" stroke-width="1.51"/><path d="M987,402L851,509L1062,552Z" fill="#7fc97b" stroke="#7fc97b" stroke-width="1.51"/><path d="M851,509L931,684L1062,552Z" fill="#74c476" stroke="#74c476" stroke-width="1.51"/><path d="M875,-169L940,-44L1035,-83Z" fill="#bae29b" stroke="#bae29b" stroke-width="1.51"/><path d="M862,41L919,193L1049,138Z" fill="#acdc8e" stroke="#acdc8e" stroke-width="1.51"/><path d="M919,193L917,391L1049,251Z" fill="#99d486" stroke="#99d486" stroke-width="1.51"/><path d="M917,391L851,509L987,402Z" fill="#8ace80" stroke="#8ace80" stroke-width="1.51"/><path d="M934,1119L918,1263L983,1166Z" fill="#469456" stroke="#469456" stroke-width="1.51"/><path d="M-194,-252L-41,-216L327,-242Z" fill="#fbfdcc" stroke="#fbfdcc" stroke-width="1.51"/><path d="M786,369L917,391L919,193Z" fill="#9cd687" stroke="#9cd687" stroke-width="1.51"/><path d="M743,218L786,369L919,193Z" fill="#a8db8c" stroke="#a8db8c" stroke-width="1.51"/><path d="M775,863L911,840L931,684Z" fill="#63b76b" stroke="#63b76b" stroke-width="1.51"/><path d="M681,734L775,863L931,684Z" fill="#6dbd6f" stroke="#6dbd6f" stroke-width="1.51"/><path d="M760,1089L918,1263L934,1119Z" fill="#4d995a" stroke="#4d995a" stroke-width="1.51"/><path d="M765,1035L760,1089L934,1119Z" fill="#56a05e" stroke="#56a05e" stroke-width="1.51"/><path d="M911,840L775,863L936,1023Z" fill="#5cac63" stroke="#5cac63" stroke-width="1.51"/><path d="M775,863L765,1035L936,1023Z" fill="#5ca861" stroke="#5ca861" stroke-width="1.51"/><path d="M765,1035L934,1119L936,1023Z" fill="#52a05d" stroke="#52a05d" stroke-width="1.51"/><path d="M875,-169L862,41L940,-44Z" fill="#bde39a" stroke="#bde39a" stroke-width="1.51"/><path d="M851,509L681,734L931,684Z" fill="#78c577" stroke="#78c577" stroke-width="1.51"/><path d="M862,41L723,137L919,193Z" fill="#b5e092" stroke="#b5e092" stroke-width="1.51"/><path d="M720,506L681,734L851,509Z" fill="#86cb7d" stroke="#86cb7d" stroke-width="1.51"/><path d="M695,-113L862,41L875,-169Z" fill="#c6e79e" stroke="#c6e79e" stroke-width="1.51"/><path d="M786,369L851,509L917,391Z" fill="#92d183" stroke="#92d183" stroke-width="1.51"/><path d="M760,1089L710,1322L918,1263Z" fill="#53965a" stroke="#53965a" stroke-width="1.51"/><path d="M723,137L743,218L919,193Z" fill="#b2df90" stroke="#b2df90" stroke-width="1.51"/><path d="M433,1255L230,1341L710,1322Z" fill="#6b9962" stroke="#6b9962" stroke-width="1.51"/><path d="M685,-206L695,-113L875,-169Z" fill="#cceaa9" stroke="#cceaa9" stroke-width="1.51"/><path d="M786,369L720,506L851,509Z" fill="#92d183" stroke="#92d183" stroke-width="1.51"/><path d="M695,-113L723,137L862,41Z" fill="#c2e69a" stroke="#c2e69a" stroke-width="1.51"/><path d="M625,525L586,670L681,734Z" fill="#89cc7d" stroke="#89cc7d" stroke-width="1.51"/><path d="M625,525L681,734L720,506Z" fill="#8cce7f" stroke="#8cce7f" stroke-width="1.51"/><path d="M695,-113L584,76L723,137Z" fill="#cae99d" stroke="#cae99d" stroke-width="1.51"/><path d="M544,1235L710,1322L760,1089Z" fill="#5e9b5e" stroke="#5e9b5e" stroke-width="1.51"/><path d="M625,977L765,1035L775,863Z" fill="#66ad65" stroke="#66ad65" stroke-width="1.51"/><path d="M542,430L720,506L786,369Z" fill="#9fd788" stroke="#9fd788" stroke-width="1.51"/><path d="M604,273L542,430L786,369Z" fill="#abdc8d" stroke="#abdc8d" stroke-width="1.51"/><path d="M743,218L604,273L786,369Z" fill="#aedd8e" stroke="#aedd8e" stroke-width="1.51"/><path d="M542,1099L544,1235L760,1089Z" fill="#66a463" stroke="#66a463" stroke-width="1.51"/><path d="M681,734L562,827L775,863Z" fill="#75bd70" stroke="#75bd70" stroke-width="1.51"/><path d="M562,827L625,977L775,863Z" fill="#71b66c" stroke="#71b66c" stroke-width="1.51"/><path d="M625,977L760,1089L765,1035Z" fill="#63a863" stroke="#63a863" stroke-width="1.51"/><path d="M544,1235L433,1255L710,1322Z" fill="#649960" stroke="#649960" stroke-width="1.51"/><path d="M542,430L625,525L720,506Z" fill="#9cd687" stroke="#9cd687" stroke-width="1.51"/><path d="M625,977L542,1099L760,1089Z" fill="#68a965" stroke="#68a965" stroke-width="1.51"/><path d="M723,137L604,273L743,218Z" fill="#b8e293" stroke="#b8e293" stroke-width="1.51"/><path d="M433,-221L535,-157L685,-206Z" fill="#ddf1b4" stroke="#ddf1b4" stroke-width="1.51"/><path d="M529,-76L584,76L695,-113Z" fill="#d3eea3" stroke="#d3eea3" stroke-width="1.51"/><path d="M584,76L604,273L723,137Z" fill="#c1e697" stroke="#c1e697" stroke-width="1.51"/><path d="M685,-206L535,-157L695,-113Z" fill="#d5eead" stroke="#d5eead" stroke-width="1.51"/><path d="M535,-157L529,-76L695,-113Z" fill="#d9f0aa" stroke="#d9f0aa" stroke-width="1.51"/><path d="M586,670L562,827L681,734Z" fill="#7fc677" stroke="#7fc677" stroke-width="1.51"/><path d="M-41,-216L105,-194L327,-242Z" fill="#f7fcc6" stroke="#f7fcc6" stroke-width="1.51"/><path d="M584,76L459,246L604,273Z" fill="#c4e799" stroke="#c4e799" stroke-width="1.51"/><path d="M380,948L542,1099L625,977Z" fill="#74b06a" stroke="#74b06a" stroke-width="1.51"/><path d="M454,837L380,948L625,977Z" fill="#7cb86f" stroke="#7cb86f" stroke-width="1.51"/><path d="M562,827L454,837L625,977Z" fill="#7aba70" stroke="#7aba70" stroke-width="1.51"/><path d="M542,430L428,497L625,525Z" fill="#a4d98b" stroke="#a4d98b" stroke-width="1.51"/><path d="M450,650L586,670L625,525Z" fill="#92d082" stroke="#92d082" stroke-width="1.51"/><path d="M428,497L450,650L625,525Z" fill="#9dd688" stroke="#9dd688" stroke-width="1.51"/><path d="M459,246L414,368L542,430Z" fill="#b9e294" stroke="#b9e294" stroke-width="1.51"/><path d="M450,650L454,837L562,827Z" fill="#86c779" stroke="#86c779" stroke-width="1.51"/><path d="M450,650L562,827L586,670Z" fill="#88ca7c" stroke="#88ca7c" stroke-width="1.51"/><path d="M459,246L542,430L604,273Z" fill="#b8e293" stroke="#b8e293" stroke-width="1.51"/><path d="M542,1099L458,1126L544,1235Z" fill="#6ca665" stroke="#6ca665" stroke-width="1.51"/><path d="M529,-76L408,37L584,76Z" fill="#d7efa4" stroke="#d7efa4" stroke-width="1.51"/><path d="M408,37L459,246L584,76Z" fill="#d1ec9f" stroke="#d1ec9f" stroke-width="1.51"/><path d="M399,-28L408,37L529,-76Z" fill="#def2a8" stroke="#def2a8" stroke-width="1.51"/><path d="M380,948L458,1126L542,1099Z" fill="#76af6b" stroke="#76af6b" stroke-width="1.51"/><path d="M458,1126L433,1255L544,1235Z" fill="#6da265" stroke="#6da265" stroke-width="1.51"/><path d="M414,368L428,497L542,430Z" fill="#afde90" stroke="#afde90" stroke-width="1.51"/><path d="M433,-221L399,-28L529,-76Z" fill="#e2f3ad" stroke="#e2f3ad" stroke-width="1.51"/><path d="M433,-221L529,-76L535,-157Z" fill="#e0f2b1" stroke="#e0f2b1" stroke-width="1.51"/><path d="M277,-78L399,-28L433,-221Z" fill="#e8f6b0" stroke="#e8f6b0" stroke-width="1.51"/><path d="M327,-242L277,-78L433,-221Z" fill="#ebf7b9" stroke="#ebf7b9" stroke-width="1.51"/><path d="M428,497L337,577L450,650Z" fill="#a2d78a" stroke="#a2d78a" stroke-width="1.51"/><path d="M450,650L254,729L454,837Z" fill="#91cd7f" stroke="#91cd7f" stroke-width="1.51"/><path d="M254,729L336,882L454,837Z" fill="#8dc77b" stroke="#8dc77b" stroke-width="1.51"/><path d="M336,882L380,948L454,837Z" fill="#86bf75" stroke="#86bf75" stroke-width="1.51"/><path d="M380,948L237,1033L458,1126Z" fill="#7fb36f" stroke="#7fb36f" stroke-width="1.51"/><path d="M237,1033L232,1095L458,1126Z" fill="#7eb16f" stroke="#7eb16f" stroke-width="1.51"/><path d="M232,1095L433,1255L458,1126Z" fill="#77aa6a" stroke="#77aa6a" stroke-width="1.51"/><path d="M408,37L302,81L459,246Z" fill="#d8efa2" stroke="#d8efa2" stroke-width="1.51"/><path d="M302,81L306,242L459,246Z" fill="#d3eda0" stroke="#d3eda0" stroke-width="1.51"/><path d="M306,242L414,368L459,246Z" fill="#c6e89a" stroke="#c6e89a" stroke-width="1.51"/><path d="M337,577L254,729L450,650Z" fill="#9dd486" stroke="#9dd486" stroke-width="1.51"/><path d="M306,242L297,352L414,368Z" fill="#c6e89a" stroke="#c6e89a" stroke-width="1.51"/><path d="M414,368L297,352L428,497Z" fill="#b9e294" stroke="#b9e294" stroke-width="1.51"/><path d="M232,1095L230,1341L433,1255Z" fill="#78a56a" stroke="#78a56a" stroke-width="1.51"/><path d="M297,352L337,577L428,497Z" fill="#b2df91" stroke="#b2df91" stroke-width="1.51"/><path d="M399,-28L302,81L408,37Z" fill="#e0f3a7" stroke="#e0f3a7" stroke-width="1.51"/><path d="M277,-78L302,81L399,-28Z" fill="#e5f5ab" stroke="#e5f5ab" stroke-width="1.51"/><path d="M135,1252L230,1341L232,1095Z" fill="#7da76d" stroke="#7da76d" stroke-width="1.51"/><path d="M297,352L178,575L337,577Z" fill="#b3df93" stroke="#b3df93" stroke-width="1.51"/><path d="M336,882L237,1033L380,948Z" fill="#85ba73" stroke="#85ba73" stroke-width="1.51"/><path d="M83,413L178,575L297,352Z" fill="#bee499" stroke="#bee499" stroke-width="1.51"/><path d="M169,-105L277,-78L327,-242Z" fill="#eff9b8" stroke="#eff9b8" stroke-width="1.51"/><path d="M254,729L155,882L336,882Z" fill="#92c77d" stroke="#92c77d" stroke-width="1.51"/><path d="M155,882L237,1033L336,882Z" fill="#8bbe77" stroke="#8bbe77" stroke-width="1.51"/><path d="M178,575L254,729L337,577Z" fill="#a5d88b" stroke="#a5d88b" stroke-width="1.51"/><path d="M277,-78L117,35L302,81Z" fill="#e8f6ad" stroke="#e8f6ad" stroke-width="1.51"/><path d="M302,81L117,35L306,242Z" fill="#e0f3a8" stroke="#e0f3a8" stroke-width="1.51"/><path d="M105,-194L169,-105L327,-242Z" fill="#f2fabf" stroke="#f2fabf" stroke-width="1.51"/><path d="M155,882L181,1023L237,1033Z" fill="#8abb76" stroke="#8abb76" stroke-width="1.51"/><path d="M86,282L297,352L306,242Z" fill="#ceeb9f" stroke="#ceeb9f" stroke-width="1.51"/><path d="M117,35L86,282L306,242Z" fill="#ddf2a7" stroke="#ddf2a7" stroke-width="1.51"/><path d="M178,575L131,666L254,729Z" fill="#a5d78c" stroke="#a5d78c" stroke-width="1.51"/><path d="M169,-105L117,35L277,-78Z" fill="#eff9b3" stroke="#eff9b3" stroke-width="1.51"/><path d="M86,282L83,413L297,352Z" fill="#cbea9f" stroke="#cbea9f" stroke-width="1.51"/><path d="M26,219L86,282L117,35Z" fill="#e2f3ab" stroke="#e2f3ab" stroke-width="1.51"/><path d="M123,1100L135,1252L232,1095Z" fill="#82af72" stroke="#82af72" stroke-width="1.51"/><path d="M131,666L155,882L254,729Z" fill="#9ad084" stroke="#9ad084" stroke-width="1.51"/><path d="M181,1023L232,1095L237,1033Z" fill="#85b573" stroke="#85b573" stroke-width="1.51"/><path d="M135,1252L0,1293L230,1341Z" fill="#7ea26d" stroke="#7ea26d" stroke-width="1.51"/><path d="M181,1023L123,1100L232,1095Z" fill="#86b473" stroke="#86b473" stroke-width="1.51"/><path d="M13,707L14,818L131,666Z" fill="#a3d58b" stroke="#a3d58b" stroke-width="1.51"/><path d="M131,666L14,818L155,882Z" fill="#9ccf86" stroke="#9ccf86" stroke-width="1.51"/><path d="M83,413L12,535L178,575Z" fill="#bce399" stroke="#bce399" stroke-width="1.51"/><path d="M155,882L-14,1015L181,1023Z" fill="#8fbd7a" stroke="#8fbd7a" stroke-width="1.51"/><path d="M-14,1015L123,1100L181,1023Z" fill="#8bb877" stroke="#8bb877" stroke-width="1.51"/><path d="M12,535L131,666L178,575Z" fill="#b0dd93" stroke="#b0dd93" stroke-width="1.51"/><path d="M-67,-40L117,35L169,-105Z" fill="#f4fbb6" stroke="#f4fbb6" stroke-width="1.51"/><path d="M105,-194L-67,-40L169,-105Z" fill="#f8fcbc" stroke="#f8fcbc" stroke-width="1.51"/><path d="M123,1100L-43,1121L135,1252Z" fill="#86b074" stroke="#86b074" stroke-width="1.51"/><path d="M14,818L-14,1015L155,882Z" fill="#96c47f" stroke="#96c47f" stroke-width="1.51"/><path d="M18,344L83,413L86,282Z" fill="#d1eca3" stroke="#d1eca3" stroke-width="1.51"/><path d="M-61,132L26,219L117,35Z" fill="#e9f6b0" stroke="#e9f6b0" stroke-width="1.51"/><path d="M12,535L13,707L131,666Z" fill="#aedb92" stroke="#aedb92" stroke-width="1.51"/><path d="M-43,1121L0,1293L135,1252Z" fill="#84aa74" stroke="#84aa74" stroke-width="1.51"/><path d="M-41,-216L-67,-40L105,-194Z" fill="#fafdc5" stroke="#fafdc5" stroke-width="1.51"/><path d="M-14,1015L-43,1121L123,1100Z" fill="#8cb67b" stroke="#8cb67b" stroke-width="1.51"/><path d="M-67,-40L-61,132L117,35Z" fill="#eff9b7" stroke="#eff9b7" stroke-width="1.51"/><path d="M18,344L12,535L83,413Z" fill="#c7e7a0" stroke="#c7e7a0" stroke-width="1.51"/><path d="M26,219L18,344L86,282Z" fill="#d8efa7" stroke="#d8efa7" stroke-width="1.51"/><path d="M-122,804L-128,1010L-14,1015Z" fill="#95c187" stroke="#95c187" stroke-width="1.51"/><path d="M-43,1121L-174,1236L0,1293Z" fill="#86ab7b" stroke="#86ab7b" stroke-width="1.51"/><path d="M12,535L-142,590L13,707Z" fill="#b2dd9b" stroke="#b2dd9b" stroke-width="1.51"/><path d="M-142,590L-150,705L13,707Z" fill="#acda9a" stroke="#acda9a" stroke-width="1.51"/><path d="M13,707L-122,804L14,818Z" fill="#a1d18e" stroke="#a1d18e" stroke-width="1.51"/><path d="M-122,804L-14,1015L14,818Z" fill="#99c788" stroke="#99c788" stroke-width="1.51"/><path d="M-204,192L-135,433L18,344Z" fill="#d6eeb0" stroke="#d6eeb0" stroke-width="1.51"/><path d="M-135,433L12,535L18,344Z" fill="#c7e7a5" stroke="#c7e7a5" stroke-width="1.51"/><path d="M-204,192L18,344L26,219Z" fill="#ddf1b0" stroke="#ddf1b0" stroke-width="1.51"/><path d="M-61,132L-204,192L26,219Z" fill="#e5f4b6" stroke="#e5f4b6" stroke-width="1.51"/><path d="M-135,433L-142,590L12,535Z" fill="#bee3a4" stroke="#bee3a4" stroke-width="1.51"/><path d="M-150,705L-122,804L13,707Z" fill="#a4d595" stroke="#a4d595" stroke-width="1.51"/><path d="M-128,1010L-43,1121L-14,1015Z" fill="#8fb981" stroke="#8fb981" stroke-width="1.51"/><path d="M-194,-252L-219,-18L-67,-40Z" fill="#fbfdcc" stroke="#fbfdcc" stroke-width="1.51"/><path d="M-219,-18L-209,107L-67,-40Z" fill="#f3fac5" stroke="#f3fac5" stroke-width="1.51"/><path d="M-67,-40L-209,107L-61,132Z" fill="#eff9bd" stroke="#eff9bd" stroke-width="1.51"/><path d="M-128,1010L-207,1116L-43,1121Z" fill="#8db784" stroke="#8db784" stroke-width="1.51"/><path d="M-207,1116L-174,1236L-43,1121Z" fill="#89b183" stroke="#89b183" stroke-width="1.51"/><path d="M-194,-252L-67,-40L-41,-216Z" fill="#fcfdcf" stroke="#fcfdcf" stroke-width="1.51"/><path d="M-209,107L-204,192L-61,132Z" fill="#eaf7bd" stroke="#eaf7bd" stroke-width="1.51"/><path d="M-207,1116L-128,1010L-122,804Z" fill="#94bf8a" stroke="#94bf8a" stroke-width="1.51"/><path d="M-150,705L-207,1116L-122,804Z" fill="#9bc891" stroke="#9bc891" stroke-width="1.51"/><path d="M-204,192L-142,590L-135,433Z" fill="#cceab0" stroke="#cceab0" stroke-width="1.51"/><path d="M-204,192L-150,705L-142,590Z" fill="#c1e5ab" stroke="#c1e5ab" stroke-width="1.51"/><path d="M-204,192L-207,1116L-150,705Z" fill="#aedaa1" stroke="#aedaa1" stroke-width="1.51"/><path d="M-219,-18L-207,1116L-204,192Z" fill="#cae9b2" stroke="#cae9b2" stroke-width="1.51"/><path d="M-209,107L-219,-18L-204,192Z" fill="#eef9c4" stroke="#eef9c4" stroke-width="1.51"/></svg>